<?xml version="1.0" encoding="UTF-8" standalone="no"?>
<svg
   width="80"
   height="80"
   viewBox="0 0 21.16672 21.16677"
   version="1.1"
   id="svg51"
   sodipodi:docname="favicon.svg"
   inkscape:version="1.1.2 (0a00cf5339, 2022-02-04)"
   xmlns:inkscape="http://www.inkscape.org/namespaces/inkscape"
   xmlns:sodipodi="http://sodipodi.sourceforge.net/DTD/sodipodi-0.dtd"
   xmlns="http://www.w3.org/2000/svg"
   xmlns:svg="http://www.w3.org/2000/svg">
  <defs
     id="defs55" />
  <sodipodi:namedview
     id="namedview53"
     pagecolor="#505050"
     bordercolor="#eeeeee"
     borderopacity="1"
     inkscape:pageshadow="0"
     inkscape:pageopacity="0"
     inkscape:pagecheckerboard="0"
     showgrid="false"
     height="500px"
     inkscape:zoom="2.5858895"
     inkscape:cx="-42.538554"
     inkscape:cy="23.009491"
     inkscape:window-width="2076"
     inkscape:window-height="1023"
     inkscape:window-x="874"
     inkscape:window-y="1089"
     inkscape:window-maximized="0"
     inkscape:current-layer="svg51" />
  <path
     style="font-weight:900;font-size:33.3901px;line-height:1.25;font-family:Exo;-inkscape-font-specification:'Exo Heavy';fill:#8e8dbf;fill-opacity:1;stroke:none;stroke-width:0.168344;stroke-linecap:round;stroke-linejoin:round;stroke-dasharray:none;stroke-opacity:1;paint-order:stroke fill markers"
     d="m 9.8936238,2.6458465 c -0.260869,0 -0.4723099,0.2140825 -0.4719485,0.4779056 V 18.045717 c 0,0.262204 0.2100565,0.475206 0.4694195,0.475206 h 6.3536502 c 1.084355,0 1.992831,-0.142201 2.7248,-0.427204 0.731968,-0.299465 1.281738,-0.769204 1.647406,-1.409789 0.366951,-0.641216 0.549794,-1.481662 0.549794,-2.521985 0,-0.554827 -0.07086,-1.053557 -0.211321,-1.495535 -0.126551,-0.441367 -0.309996,-0.825953 -0.549132,-1.153809 -0.227153,-0.316143 -0.514271,-0.584767 -0.845213,-0.790642 -0.321556,-0.198241 -0.670168,-0.349263 -1.035005,-0.448264 0.47827,-0.114121 0.873047,-0.3202841 1.183043,-0.6197778 0.328962,-0.3214838 0.575261,-0.7172785 0.718049,-1.1538077 0.168936,-0.4697455 0.253042,-1.0113179 0.253042,-1.6235291 0,-1.3107994 -0.373272,-2.3435557 -1.11978,-3.0982565 C 18.828462,3.0235138 17.618214,2.6458465 15.927788,2.6458465 Z M 2.7867744,3.7775859 C 2.5808005,3.7778139 2.405465,3.9293276 2.3730267,4.1350701 L 1.9225836,7.0038299 H 0.21127822 C 0.09457897,7.0038365 -2.5e-5,7.0998119 -2.5e-5,7.2182053 v 2.7142879 c 0,0.1998628 0.16031669,0.3619238 0.35807676,0.3619238 H 1.7524006 l -0.1265272,3.888899 c -0.02847,1.097065 0.077815,1.965257 0.3169561,2.606473 0.2530603,0.626712 0.6687053,1.074996 1.2463099,1.346109 0.5915217,0.256203 1.3728382,0.384604 2.3445806,0.384604 h 2.1060736 c 0.1435895,0 0.2600264,-0.118202 0.2600264,-0.263403 V 15.782401 C 7.8995104,15.590399 7.7558089,15.429777 7.5670658,15.410396 L 6.4422229,15.295014 C 6.3259667,15.283374 6.2120586,15.254471 6.1044118,15.209274 6.0078427,15.153786 5.9221106,15.081353 5.8513515,14.995551 5.7923667,14.88857 5.7497192,14.773369 5.7248244,14.653848 5.69462,14.491665 5.6802136,14.326964 5.6818041,14.162081 V 10.295246 H 7.73094 c 0.1399772,0 0.2534039,-0.114961 0.2530425,-0.256623 V 7.366581 c 0,-0.1996224 -0.1599052,-0.3615643 -0.3574382,-0.3619243 H 5.6823881 V 4.1333769 c 0,-0.1960223 -0.1572015,-0.3549642 -0.3511164,-0.3549642 z M 13.519942,6.3626204 h 2.365461 c 0.225228,0 0.429564,0.092701 0.6124,0.2774432 0.197413,0.171482 0.296089,0.499326 0.296089,0.9835737 0,0.3556241 -0.07779,0.6550878 -0.232813,0.8971965 -0.140458,0.2421029 -0.366288,0.3631844 -0.675664,0.3631844 h -2.366093 z m -6.32e-4,5.6624886 h 2.598274 c 0.253041,0 0.464963,0.05674 0.633912,0.170882 0.168935,0.113462 0.296088,0.277443 0.380195,0.491767 0.09868,0.199263 0.148044,0.441364 0.148044,0.726331 0,0.284345 -0.04935,0.534006 -0.148044,0.747141 -0.07718,0.190681 -0.209273,0.354305 -0.379594,0.470346 -0.169537,0.114121 -0.380858,0.170881 -0.634544,0.170881 H 13.51928 Z"
     id="path49"
     sodipodi:nodetypes="scccsccsccccccscsscccssssccccssscccccccccccccscccscscscccsccsccscc" />
</svg>
