<svg width="500" height="130" viewBox="0 0 132.292 34.396" xmlns="http://www.w3.org/2000/svg"><path style="font-weight:900;font-size:33.3901px;line-height:1.25;font-family:Exo;-inkscape-font-specification:'Exo Heavy';fill:#8e8dbf;fill-opacity:1;stroke:none;stroke-width:.266549;stroke-linecap:round;stroke-linejoin:round;stroke-dasharray:none;stroke-opacity:1;paint-order:stroke fill markers" d="M38.05 0a3.306 2.693 0 0 0-3.305 2.694 3.306 2.693 0 0 0 3.305 2.693 3.306 2.693 0 0 0 3.306-2.693A3.306 2.693 0 0 0 38.05 0Zm70.468 0a3.306 2.693 0 0 0-3.306 2.694 3.306 2.693 0 0 0 3.306 2.693 3.306 2.693 0 0 0 3.305-2.693A3.306 2.693 0 0 0 108.518 0ZM64.955.067a.713.723 0 0 0-.712.723v24.311a.81.823 0 0 0 .81.823h4.955a.713.723 0 0 0 .712-.723v-5.92h1.236a.904.918 0 0 1 .792.476l3.07 5.656a.973.987 0 0 0 .853.51h5.19a.42.426 0 0 0 .367-.631l-4.896-8.958 4.29-8.02a.437.444 0 0 0-.384-.656h-5.254a.86.874 0 0 0-.763.47l-2.374 4.627a1.153 1.17 0 0 1-1.023.63H70.72V.745a.668.678 0 0 0-.667-.678ZM15.538.101a.78.79 0 0 0-.78.79v24.283a.739.75 0 0 0 .74.75h5.155a.583.592 0 0 0 .583-.592V14.3c.179-.18.401-.35.668-.508a3.74 3.74 0 0 1 .868-.373 2.639 2.639 0 0 1 1.77-.034c.267.09.478.26.634.508.178.249.267.6.267 1.051v10.192a.776.787 0 0 0 .776.788h5.12a.583.592 0 0 0 .582-.592V14.063c0-1.378-.167-2.564-.5-3.558-.335-1.017-.903-1.796-1.704-2.338-.801-.543-1.914-.814-3.339-.814-.98 0-1.959.226-2.938.678-.957.429-1.692.892-2.204 1.389V.725a.615.625 0 0 0-.615-.624Zm69.385.644a.746.757 0 0 0-.746.758V25.17a.743.754 0 0 0 .742.754h10.043c1.714 0 3.15-.226 4.307-.678 1.157-.475 2.026-1.22 2.604-2.236.58-1.017.869-2.35.869-4 0-.88-.112-1.671-.334-2.372-.2-.7-.49-1.31-.868-1.83a4.713 4.713 0 0 0-1.336-1.254 6.214 6.214 0 0 0-1.636-.711c.756-.181 1.38-.508 1.87-.983a4.53 4.53 0 0 0 1.135-1.83c.267-.745.4-1.604.4-2.575 0-2.079-.59-3.717-1.77-4.914-1.157-1.197-3.07-1.796-5.742-1.796ZM4.405 2.54a.663.673 0 0 0-.654.567l-.712 4.55H.334a.334.34 0 0 0-.334.34v4.305a.566.574 0 0 0 .566.574H2.77l-.2 6.168c-.045 1.74.123 3.117.501 4.134.4.994 1.057 1.705 1.97 2.135.935.406 2.17.61 3.706.61h3.329a.411.418 0 0 0 .411-.418V21.58a.585.594 0 0 0-.526-.59l-1.778-.183a1.853 1.853 0 0 1-.534-.136 1.464 1.464 0 0 1-.4-.339 1.948 1.948 0 0 1-.2-.542 4.06 4.06 0 0 1-.068-.78v-6.133h3.239a.4.406 0 0 0 .4-.407V8.232a.566.574 0 0 0-.565-.574H8.982V3.104a.555.563 0 0 0-.555-.563Zm86.25 4.1h3.739c.356 0 .679.147.968.44.312.272.468.792.468 1.56 0 .564-.123 1.039-.368 1.423-.222.384-.579.576-1.068.576h-3.74Zm-34.894.712c-.957 0-1.903.215-2.838.644-.935.43-1.68.903-2.237 1.423V8.207a.54.549 0 0 0-.54-.549h-5.354a.583.592 0 0 0-.583.592v17.078a.587.596 0 0 0 .586.596h5.308a.583.592 0 0 0 .583-.592V14.3c.2-.203.423-.384.668-.542.267-.158.556-.283.868-.373.312-.09.613-.135.902-.135.356 0 .656.056.901.17.267.09.479.259.635.507.156.249.233.61.233 1.085v10.316a.587.596 0 0 0 .588.596h5.307a.583.592 0 0 0 .583-.592V14.13c0-1.265-.145-2.406-.434-3.423-.29-1.04-.835-1.852-1.636-2.44-.802-.61-1.981-.915-3.54-.915Zm66.714.305c-1.87 0-3.384.237-4.541.712-1.135.451-1.97 1.13-2.504 2.033-.535.881-.802 1.977-.802 3.287 0 .7.09 1.367.267 2a5.81 5.81 0 0 0 .835 1.762 5.874 5.874 0 0 0 1.536 1.423c-.912.226-1.625.678-2.137 1.355-.512.678-.768 1.48-.768 2.407 0 1.22.545 2.27 1.636 3.151.062.048.126.093.192.138-.7.348-1.287.81-1.76 1.387-.535.678-.802 1.48-.802 2.406v.373c0 .904.256 1.672.768 2.305.534.655 1.246 1.152 2.136 1.49.89.34 1.882.509 2.972.509h5.643c2.427 0 4.196-.543 5.31-1.627 1.134-1.084 1.702-2.576 1.702-4.473v-.305c0-1.446-.278-2.587-.835-3.423-.556-.858-1.335-1.468-2.337-1.83-1.002-.361-2.182-.542-3.54-.542h-4.34c-.356 0-.668-.045-.935-.136-.267-.09-.4-.282-.4-.576 0-.293.133-.497.4-.61a2.04 2.04 0 0 1 .935-.203h3.406c1.558 0 2.815-.226 3.773-.678.957-.474 1.658-1.13 2.103-1.965.468-.836.702-1.819.702-2.948a8.1 8.1 0 0 0-.1-1.356 4.3 4.3 0 0 0-.234-1.05 2.717 2.717 0 0 0-.368-.814h1.26a.643.653 0 0 0 .644-.653v-2.86a.68.69 0 0 0-.68-.689zm-16.725.233c-.276-.007-.47.184-.47.512v16.83a.68.691 0 0 0 .68.69h5.078a.72.73 0 0 0 .719-.73V8.438c0-.423-.31-.628-.707-.5a8.315 8.315 0 0 1-2.532.393c-.88 0-1.752-.138-2.565-.404a.707.707 0 0 0-.203-.036zm-70.467 0c-.276-.006-.471.184-.471.512v16.83a.68.691 0 0 0 .68.69h5.078a.72.73 0 0 0 .72-.73V8.438c0-.423-.31-.628-.707-.5a8.319 8.319 0 0 1-2.533.393c-.88 0-1.75-.138-2.564-.404a.706.706 0 0 0-.203-.036zm86.658 4.647h1.836c.378 0 .68.056.902.17.222.09.378.26.467.508.09.226.134.53.134.915 0 .384-.045.7-.134.949a.936.936 0 0 1-.467.542c-.223.113-.524.17-.902.17h-1.836c-.557 0-.946-.137-1.169-.408-.223-.27-.334-.688-.334-1.253 0-.588.111-.994.334-1.22.223-.249.612-.373 1.169-.373zm-31.287 3.084h4.107c.4 0 .735.09 1.002.271.267.18.468.44.601.78.156.316.234.7.234 1.152 0 .451-.078.847-.234 1.185a1.653 1.653 0 0 1-.6.746c-.268.181-.602.271-1.003.271h-4.107zm30.753 11.454h2.938c.334 0 .623.045.868.136.245.09.434.214.567.372a1 1 0 0 1 .235.678v.407c0 .384-.156.677-.468.88-.312.204-.712.306-1.202.306h-2.938c-.58 0-1.002-.136-1.27-.407a1.253 1.253 0 0 1-.367-.915v-.17c0-.248.056-.474.167-.677.112-.181.29-.328.535-.44.245-.114.556-.17.935-.17z"/></svg>